<?xml version="1.0" encoding="utf-8"?>
<!-- Generator: Adobe Illustrator 18.1.1, SVG Export Plug-In . SVG Version: 6.00 Build 0)  -->
<!DOCTYPE svg PUBLIC "-//W3C//DTD SVG 1.1//EN" "http://www.w3.org/Graphics/SVG/1.1/DTD/svg11.dtd">
<svg version="1.1" id="Layer_1" xmlns="http://www.w3.org/2000/svg" xmlns:xlink="http://www.w3.org/1999/xlink" x="0px" y="0px"
	 viewBox="0 0 205.6 207.1" enable-background="new 0 0 205.6 207.1" xml:space="preserve">
<g>
	<defs>
		<rect id="SVGID_1_" x="13.7" y="13" width="182.1" height="181.4"/>
	</defs>
	<clipPath id="SVGID_2_">
		<use xlink:href="#SVGID_1_"  overflow="visible"/>
	</clipPath>
	<g clip-path="url(#SVGID_2_)">
		<path fill="#808285" d="M70.5,205.6c-0.3,0-0.6-0.1-0.8-0.3c-0.3-0.2-1.1-0.9-0.4-2.5l2.4,1.2c0-0.2-0.1-0.6-0.4-0.8
			c-0.4-0.3-0.9-0.3-1.1-0.2c0.7-0.3,4.6-3.4,26.4-29.5c26.5-31.9,15.7-48,6.3-62.2c-1.5-2.2-2.8-4.2-4.1-6.3
			c-2.9-4.9-6.1-8.9-9.2-12.7C83,84.1,76.8,76.5,76.8,62.6c0-20.1,43.3-54.3,45.1-55.7l1.7,2.1c-0.4,0.3-44.1,34.8-44.1,53.6
			c0,12.9,5.6,19.9,12.1,27.9c3.2,3.9,6.5,8,9.5,13.1c1.2,2,2.5,4.1,4,6.2c9.5,14.2,21.3,32-6.4,65.4c-9.9,11.9-17.3,20.5-21.9,25.4
			C73,204.4,71.5,205.6,70.5,205.6z"/>
	</g>
	<g clip-path="url(#SVGID_2_)">
		<path fill="#808285" d="M64.5,205.6c-0.3,0-0.6-0.1-0.8-0.3c-0.3-0.2-1.1-0.9-0.4-2.5l2.4,1.2c0-0.2-0.1-0.6-0.4-0.8
			c-0.4-0.3-0.9-0.3-1.1-0.2c0.7-0.3,4.6-3.4,26.4-29.5c26.5-31.9,15.7-48,6.3-62.2c-1.5-2.2-2.8-4.2-4.1-6.3
			c-2.9-4.9-6.1-8.9-9.2-12.7C77,84.1,70.8,76.5,70.8,62.6C70.8,42.5,114.1,8.4,116,7l1.7,2.1c-0.4,0.3-44.1,34.8-44.1,53.6
			c0,12.9,5.6,19.9,12.1,27.9c3.2,3.9,6.5,8,9.5,13.1c1.2,2,2.5,4.1,4,6.2c9.5,14.2,21.3,32-6.4,65.4c-9.9,11.9-17.3,20.5-21.9,25.4
			C67,204.4,65.5,205.6,64.5,205.6z"/>
	</g>
	<g clip-path="url(#SVGID_2_)">
		<path fill="#808285" d="M58.9,205.6c-0.3,0-0.6-0.1-0.8-0.3c-0.3-0.2-1.1-0.9-0.4-2.5l2.4,1.2c0-0.2-0.1-0.6-0.4-0.8
			c-0.4-0.3-0.9-0.3-1.1-0.2c0.7-0.3,4.6-3.4,26.4-29.5c26.5-31.9,15.7-48,6.3-62.2c-1.5-2.2-2.8-4.2-4.1-6.3
			C84.3,100,81,96,77.9,92.2c-6.5-8.1-12.7-15.7-12.7-29.6c0-20.1,43.3-54.3,45.1-55.7l1.7,2.1c-0.4,0.3-44.1,34.8-44.1,53.6
			c0,12.9,5.6,19.9,12.1,27.9c3.2,3.9,6.5,8,9.5,13.1c1.2,2,2.5,4.1,4,6.2c9.5,14.2,21.3,32-6.4,65.4c-9.9,11.9-17.3,20.5-21.9,25.4
			C61.4,204.4,59.9,205.6,58.9,205.6z"/>
	</g>
	<g clip-path="url(#SVGID_2_)">
		<path fill="#808285" d="M53.1,205.6c-0.3,0-0.6-0.1-0.8-0.3c-0.3-0.2-1.1-0.9-0.4-2.5l2.4,1.2c0-0.2-0.1-0.6-0.4-0.8
			c-0.4-0.3-0.9-0.3-1.1-0.2c0.7-0.3,4.6-3.4,26.4-29.5c26.5-31.9,15.7-48,6.3-62.2c-1.5-2.2-2.8-4.2-4.1-6.3
			c-2.9-4.9-6.1-8.9-9.2-12.7c-6.5-8.1-12.7-15.7-12.7-29.6c0-20.1,43.3-54.3,45.1-55.7l1.7,2.1c-0.4,0.3-44.1,34.8-44.1,53.6
			c0,12.9,5.6,19.9,12.1,27.9c3.2,3.9,6.5,8,9.5,13.1c1.2,2,2.5,4.1,4,6.2c9.5,14.2,21.3,32-6.4,65.4c-9.9,11.9-17.3,20.5-21.9,25.4
			C55.7,204.4,54.2,205.6,53.1,205.6z"/>
	</g>
	<g clip-path="url(#SVGID_2_)">
		<path fill="#808285" d="M47.3,205.6c-0.3,0-0.6-0.1-0.8-0.3c-0.3-0.2-1.1-0.9-0.4-2.5l2.4,1.2c0-0.2-0.1-0.6-0.4-0.8
			c-0.4-0.3-0.9-0.3-1.1-0.2c0.7-0.3,4.6-3.4,26.4-29.5c26.5-31.9,15.7-48,6.3-62.2c-1.5-2.2-2.8-4.2-4.1-6.3
			c-2.9-4.9-6.1-8.9-9.2-12.7c-6.5-8.1-12.7-15.7-12.7-29.6C53.7,42.5,96.9,8.4,98.8,7l1.7,2.1C100,9.4,56.4,43.8,56.4,62.6
			c0,12.9,5.6,19.9,12.1,27.9c3.2,3.9,6.5,8,9.5,13.1c1.2,2,2.5,4.1,4,6.2c9.5,14.2,21.3,32-6.4,65.4c-9.9,11.9-17.3,20.5-21.9,25.4
			C49.8,204.4,48.3,205.6,47.3,205.6z"/>
	</g>
	<g clip-path="url(#SVGID_2_)">
		<path fill="#808285" d="M41.3,205.6c-0.3,0-0.6-0.1-0.8-0.3c-0.3-0.2-1.1-0.9-0.4-2.5l2.4,1.2c0-0.2-0.1-0.6-0.4-0.8
			c-0.4-0.3-0.9-0.3-1.1-0.2c0.7-0.3,4.6-3.4,26.4-29.5c26.5-31.9,15.7-48,6.3-62.2c-1.5-2.2-2.8-4.2-4.1-6.3
			c-2.9-4.9-6.1-8.9-9.2-12.7c-6.5-8.1-12.7-15.7-12.7-29.6C47.7,42.5,91,8.4,92.8,7l1.7,2.1C94,9.4,50.4,43.8,50.4,62.6
			c0,12.9,5.6,19.9,12.1,27.9c3.2,3.9,6.5,8,9.5,13.1c1.2,2,2.5,4.1,4,6.2c9.5,14.2,21.3,32-6.4,65.4c-9.9,11.9-17.3,20.5-21.9,25.4
			C43.9,204.4,42.4,205.6,41.3,205.6z"/>
	</g>
	<g clip-path="url(#SVGID_2_)">
		<path fill="#808285" d="M35.7,205.6c-0.3,0-0.6-0.1-0.8-0.3c-0.3-0.2-1.1-0.9-0.4-2.5l2.4,1.2c0-0.2-0.1-0.6-0.4-0.8
			c-0.4-0.3-0.9-0.3-1.1-0.2c0.7-0.3,4.6-3.4,26.4-29.5c26.5-31.9,15.7-48,6.3-62.2c-1.5-2.2-2.8-4.2-4.1-6.3
			c-2.9-4.9-6.1-8.9-9.2-12.7c-6.5-8.1-12.7-15.7-12.7-29.6C42.1,42.5,85.4,8.4,87.2,7l1.7,2.1c-0.4,0.3-44.1,34.8-44.1,53.6
			c0,12.9,5.6,19.9,12.1,27.9c3.2,3.9,6.5,8,9.5,13.1c1.2,2,2.5,4.1,4,6.2c9.5,14.2,21.3,32-6.4,65.4c-9.9,11.9-17.3,20.5-21.9,25.4
			C38.2,204.4,36.7,205.6,35.7,205.6z"/>
	</g>
	<g clip-path="url(#SVGID_2_)">
		<path fill="#808285" d="M30,205.6c-0.3,0-0.6-0.1-0.8-0.3c-0.3-0.2-1.1-0.9-0.4-2.5l2.4,1.2c0-0.2-0.1-0.6-0.4-0.8
			c-0.4-0.3-0.9-0.3-1.1-0.2c0.7-0.3,4.6-3.4,26.4-29.5c26.5-31.9,15.7-48,6.3-62.2c-1.5-2.2-2.8-4.2-4.1-6.3
			c-2.9-4.9-6.1-8.9-9.2-12.7c-6.5-8.1-12.7-15.7-12.7-29.6C36.3,42.5,79.6,8.4,81.5,7l1.7,2.1C82.7,9.4,39,43.8,39,62.6
			c0,12.9,5.6,19.9,12.1,27.9c3.2,3.9,6.5,8,9.5,13.1c1.2,2,2.5,4.1,4,6.2c9.5,14.2,21.3,32-6.4,65.4c-9.9,11.9-17.3,20.5-21.9,25.4
			C32.5,204.4,31,205.6,30,205.6z"/>
	</g>
	<g clip-path="url(#SVGID_2_)">
		<path fill="#808285" d="M23.4,205.6c-0.3,0-0.6-0.1-0.8-0.3c-0.3-0.2-1.1-0.9-0.4-2.5l2.4,1.2c0-0.2-0.1-0.6-0.4-0.8
			c-0.4-0.3-0.9-0.3-1.1-0.2c0.7-0.3,4.6-3.4,26.4-29.5c26.5-31.9,15.7-48,6.3-62.2c-1.5-2.2-2.8-4.2-4.1-6.3
			c-2.9-4.9-6.1-8.9-9.2-12.7c-6.5-8.1-12.7-15.7-12.7-29.6C29.7,42.5,73,8.4,74.9,7l1.7,2.1c-0.4,0.3-44.1,34.8-44.1,53.6
			c0,12.9,5.6,19.9,12.1,27.9c3.2,3.9,6.5,8,9.5,13.1c1.2,2,2.5,4.1,4,6.2c9.5,14.2,21.3,32-6.4,65.4c-9.9,11.9-17.3,20.5-21.9,25.4
			C25.9,204.4,24.4,205.6,23.4,205.6z"/>
	</g>
	<g clip-path="url(#SVGID_2_)">
		<path fill="#808285" d="M17.4,205.6c-0.3,0-0.6-0.1-0.8-0.3c-0.3-0.2-1.1-0.9-0.4-2.5l2.4,1.2c0-0.2-0.1-0.6-0.4-0.8
			c-0.4-0.3-0.9-0.3-1.1-0.2c0.7-0.3,4.6-3.4,26.4-29.5c26.5-31.9,15.7-48,6.3-62.2c-1.5-2.2-2.8-4.2-4.1-6.3
			c-2.9-4.9-6.1-8.9-9.2-12.7C30,84.1,23.8,76.5,23.8,62.6C23.8,42.5,67.1,8.4,68.9,7l1.7,2.1c-0.4,0.3-44.1,34.8-44.1,53.6
			c0,12.9,5.6,19.9,12.1,27.9c3.2,3.9,6.5,8,9.5,13.1c1.2,2,2.5,4.1,4,6.2c9.5,14.2,21.3,32-6.4,65.4c-9.9,11.9-17.3,20.5-21.9,25.4
			C20,204.4,18.5,205.6,17.4,205.6z"/>
	</g>
	<g clip-path="url(#SVGID_2_)">
		<path fill="#808285" d="M11.8,205.6c-0.3,0-0.6-0.1-0.8-0.3c-0.3-0.2-1.1-0.9-0.4-2.5l2.4,1.2c0-0.2-0.1-0.6-0.4-0.8
			c-0.4-0.3-0.9-0.3-1.1-0.2c0.7-0.3,4.6-3.4,26.4-29.5c26.5-31.9,15.7-48,6.3-62.2c-1.5-2.2-2.8-4.2-4.1-6.3
			C37.2,100,34,96,30.9,92.2c-6.5-8.1-12.7-15.7-12.7-29.6C18.2,42.5,61.4,8.4,63.3,7l1.7,2.1c-0.4,0.3-44.1,34.8-44.1,53.6
			c0,12.9,5.6,19.9,12.1,27.9c3.2,3.9,6.5,8,9.5,13.1c1.2,2,2.5,4.1,4,6.2c9.5,14.2,21.3,32-6.4,65.4c-9.9,11.9-17.3,20.5-21.9,25.4
			C14.3,204.4,12.8,205.6,11.8,205.6z"/>
	</g>
	<g clip-path="url(#SVGID_2_)">
		<path fill="#808285" d="M6.1,205.6c-0.3,0-0.6-0.1-0.8-0.3c-0.3-0.2-1.1-0.9-0.4-2.5l2.4,1.2c0-0.2-0.1-0.6-0.4-0.8
			c-0.4-0.3-0.9-0.3-1.1-0.2c0.7-0.3,4.6-3.4,26.4-29.5c26.5-31.9,15.7-48,6.3-62.2c-1.5-2.2-2.8-4.2-4.1-6.3
			c-2.9-4.9-6.1-8.9-9.2-12.7c-6.5-8.1-12.7-15.7-12.7-29.6C12.4,42.5,55.7,8.4,57.5,7l1.7,2.1c-0.4,0.3-44.1,34.8-44.1,53.6
			c0,12.9,5.6,19.9,12.1,27.9c3.2,3.9,6.5,8,9.5,13.1c1.2,2,2.5,4.1,4,6.2c9.5,14.2,21.3,32-6.4,65.4c-9.9,11.9-17.3,20.5-21.9,25.4
			C8.6,204.4,7.1,205.6,6.1,205.6z"/>
	</g>
	<g clip-path="url(#SVGID_2_)">
		<path fill="#808285" d="M0.3,205.6c-0.3,0-0.6-0.1-0.8-0.3c-0.3-0.2-1.1-0.9-0.4-2.5l2.4,1.2c0-0.2-0.1-0.6-0.4-0.8
			c-0.4-0.3-0.9-0.3-1.1-0.2c0.7-0.3,4.6-3.4,26.4-29.5c26.5-31.9,15.7-48,6.3-62.2c-1.5-2.2-2.8-4.2-4.1-6.3
			c-2.9-4.9-6.1-8.9-9.2-12.7C12.8,84.1,6.6,76.5,6.6,62.6C6.6,42.5,49.9,8.4,51.8,7l1.7,2.1C53,9.4,9.3,43.8,9.3,62.6
			c0,12.9,5.6,19.9,12.1,27.9c3.2,3.9,6.5,8,9.5,13.1c1.2,2,2.5,4.1,4,6.2c9.5,14.2,21.3,32-6.4,65.4c-9.9,11.9-17.3,20.5-21.9,25.4
			C2.8,204.4,1.3,205.6,0.3,205.6z"/>
	</g>
	<g clip-path="url(#SVGID_2_)">
		<path fill="#808285" d="M-5.7,205.6c-0.3,0-0.6-0.1-0.8-0.3c-0.3-0.2-1.1-0.9-0.4-2.5l2.4,1.2c0-0.2-0.1-0.6-0.4-0.8
			c-0.4-0.3-0.9-0.3-1.1-0.2c0.7-0.3,4.6-3.4,26.4-29.5c26.5-31.9,15.7-48,6.3-62.2c-1.5-2.2-2.8-4.2-4.1-6.3
			c-2.9-4.9-6.1-8.9-9.2-12.7C6.9,84.1,0.7,76.5,0.7,62.6C0.7,42.5,44,8.4,45.8,7l1.7,2.1C47,9.4,3.4,43.8,3.4,62.6
			c0,12.9,5.6,19.9,12.1,27.9c3.2,3.9,6.5,8,9.5,13.1c1.2,2,2.5,4.1,4,6.2c9.5,14.2,21.3,32-6.4,65.4c-9.9,11.9-17.3,20.5-21.9,25.4
			C-3.1,204.4-4.7,205.6-5.7,205.6z"/>
	</g>
	<g clip-path="url(#SVGID_2_)">
		<path fill="#808285" d="M-11.3,205.6c-0.3,0-0.6-0.1-0.8-0.3c-0.3-0.2-1.1-0.9-0.4-2.5l2.4,1.2c0-0.2-0.1-0.6-0.4-0.8
			c-0.4-0.3-0.9-0.3-1.1-0.2c0.7-0.3,4.6-3.4,26.4-29.5c26.5-31.9,15.7-48,6.3-62.2c-1.5-2.2-2.8-4.2-4.1-6.3
			c-2.9-4.9-6.1-8.9-9.2-12.7C1.2,84.1-5,76.5-5,62.6C-5,42.5,38.3,8.4,40.2,7l1.7,2.1C41.4,9.4-2.3,43.8-2.3,62.6
			c0,12.9,5.6,19.9,12.1,27.9c3.2,3.9,6.5,8,9.5,13.1c1.2,2,2.5,4.1,4,6.2c9.5,14.2,21.3,32-6.4,65.4C7,187.1-0.4,195.6-5.1,200.5
			C-8.8,204.4-10.3,205.6-11.3,205.6z"/>
	</g>
	<g clip-path="url(#SVGID_2_)">
		<path fill="#808285" d="M-17,205.6c-0.3,0-0.6-0.1-0.8-0.3c-0.3-0.2-1.1-0.9-0.4-2.5l2.4,1.2c0-0.2-0.1-0.6-0.4-0.8
			c-0.4-0.3-0.9-0.3-1.1-0.2c0.7-0.3,4.6-3.4,26.4-29.5c26.5-31.9,15.7-48,6.3-62.2c-1.5-2.2-2.8-4.2-4.1-6.3C8.4,100,5.1,96,2,92.2
			c-6.5-8.1-12.7-15.7-12.7-29.6c0-20.1,43.3-54.3,45.1-55.7l1.7,2.1C35.7,9.4-8,43.8-8,62.6c0,12.9,5.6,19.9,12.1,27.9
			c3.2,3.9,6.5,8,9.5,13.1c1.2,2,2.5,4.1,4,6.2c9.5,14.2,21.3,32-6.4,65.4c-9.9,11.9-17.3,20.5-21.9,25.4
			C-14.5,204.4-16,205.6-17,205.6z"/>
	</g>
	<g clip-path="url(#SVGID_2_)">
		<path fill="#808285" d="M-22.5,205.6c-0.3,0-0.6-0.1-0.8-0.3c-0.3-0.2-1.1-0.9-0.4-2.5l2.4,1.2c0-0.2-0.1-0.6-0.4-0.8
			c-0.4-0.3-0.9-0.3-1.1-0.2c0.7-0.3,4.6-3.4,26.4-29.5c26.5-31.9,15.7-48,6.3-62.2c-1.5-2.2-2.8-4.2-4.1-6.3
			C2.9,100-0.3,96-3.4,92.2c-6.5-8.1-12.7-15.7-12.7-29.6C-16.1,42.5,27.2,8.4,29,7l1.7,2.1c-0.4,0.3-44.1,34.8-44.1,53.6
			c0,12.9,5.6,19.9,12.1,27.9c3.2,3.9,6.5,8,9.5,13.1c1.2,2,2.5,4.1,4,6.2c9.5,14.2,21.3,32-6.4,65.4c-9.9,11.9-17.3,20.5-21.9,25.4
			C-19.9,204.4-21.5,205.6-22.5,205.6z"/>
	</g>
	<g clip-path="url(#SVGID_2_)">
		<path fill="#808285" d="M-28.4,205.6c-0.3,0-0.6-0.1-0.8-0.3c-0.3-0.2-1.1-0.9-0.4-2.5l2.4,1.2c0-0.2-0.1-0.6-0.4-0.8
			c-0.4-0.3-0.9-0.3-1.1-0.2c0.7-0.3,4.6-3.4,26.4-29.5c26.5-31.9,15.7-48,6.3-62.2c-1.5-2.2-2.8-4.2-4.1-6.3
			C-3,100-6.3,96-9.4,92.2c-6.5-8.1-12.7-15.7-12.7-29.6C-22.1,42.5,21.2,8.4,23,7l1.7,2.1c-0.4,0.3-44.1,34.8-44.1,53.6
			c0,12.9,5.6,19.9,12.1,27.9c3.2,3.9,6.5,8,9.5,13.1c1.2,2,2.5,4.1,4,6.2c9.5,14.2,21.3,32-6.4,65.4c-9.9,11.9-17.3,20.5-21.9,25.4
			C-25.9,204.4-27.4,205.6-28.4,205.6z"/>
	</g>
	<g clip-path="url(#SVGID_2_)">
		<path fill="#58595B" d="M-34.1,205.6c-0.3,0-0.6-0.1-0.8-0.3c-0.3-0.2-1.1-0.9-0.4-2.5l2.4,1.2c0-0.2-0.1-0.6-0.4-0.8
			c-0.4-0.3-0.9-0.3-1.1-0.2c0.7-0.3,4.6-3.4,26.4-29.5c26.5-31.9,15.7-48,6.3-62.2c-1.5-2.2-2.8-4.2-4.1-6.3
			C-8.7,100-11.9,96-15,92.2c-6.5-8.1-12.7-15.7-12.7-29.6c0-20.1,43.3-54.3,45.1-55.7l1.7,2.1C18.6,9.4-25,43.8-25,62.6
			c0,12.9,5.6,19.9,12.1,27.9c3.2,3.9,6.5,8,9.5,13.1c1.2,2,2.5,4.1,4,6.2c9.5,14.2,21.3,32-6.4,65.4c-9.9,11.9-17.3,20.5-21.9,25.4
			C-31.5,204.4-33,205.6-34.1,205.6z"/>
	</g>
	<g clip-path="url(#SVGID_2_)">
		<path fill="#58595B" d="M-39.8,205.6c-0.3,0-0.6-0.1-0.8-0.3c-0.3-0.2-1.1-0.9-0.4-2.5l2.4,1.2c0-0.2-0.1-0.6-0.4-0.8
			c-0.4-0.3-0.9-0.3-1.1-0.2c0.7-0.3,4.6-3.4,26.4-29.5c26.5-31.9,15.7-48,6.3-62.2c-1.5-2.2-2.8-4.2-4.1-6.3
			c-2.9-4.9-6.1-8.9-9.2-12.7c-6.5-8.1-12.7-15.7-12.7-29.6C-33.4,42.5,9.8,8.4,11.7,7l1.7,2.1c-0.4,0.3-44.1,34.8-44.1,53.6
			c0,12.9,5.6,19.9,12.1,27.9c3.2,3.9,6.5,8,9.5,13.1c1.2,2,2.5,4.1,4,6.2c9.5,14.2,21.3,32-6.4,65.4c-9.9,11.9-17.3,20.5-21.9,25.4
			C-37.3,204.4-38.8,205.6-39.8,205.6z"/>
	</g>
	<g clip-path="url(#SVGID_2_)">
		<path fill="#BCBEC0" d="M45,204.2l-1.3-1.4c0.1-0.1,15-14.1,29.6-34c13.4-18.3,29.5-45.6,29.5-71.6c0-10.3-2.9-21.3-8.8-32.6
			c-4.7-9.1-11.2-18.4-19.4-27.7C60.6,21,46.5,10.6,46.4,10.4l1.1-1.5C47.6,9,61.9,19.6,76,35.6c8.3,9.4,14.9,18.9,19.6,28.1
			c6,11.6,9,22.8,9,33.4c0,11.7-3.1,24.6-9.4,38.4c-4.9,11-11.8,22.5-20.5,34.3C60.1,190,45.2,204,45,204.2z"/>
	</g>
	<g clip-path="url(#SVGID_2_)">
		<path fill="#BCBEC0" d="M50.2,204.2l-1.3-1.4c0.1-0.1,15-14.1,29.6-34c13.4-18.3,29.5-45.6,29.5-71.6c0-10.3-2.9-21.3-8.8-32.6
			C94.5,55.5,88,46.2,79.8,36.9C65.8,21,51.7,10.6,51.5,10.4l1.1-1.5C52.8,9,67.1,19.6,81.2,35.6c8.3,9.4,14.9,18.9,19.6,28.1
			c6,11.6,9,22.8,9,33.4c0,11.7-3.1,24.6-9.4,38.4c-4.9,11-11.8,22.5-20.5,34.3C65.3,190,50.4,204,50.2,204.2z"/>
	</g>
	<g clip-path="url(#SVGID_2_)">
		<path fill="#BCBEC0" d="M55.9,204.2l-1.3-1.4c0.1-0.1,15-14.1,29.6-34c13.4-18.3,29.5-45.6,29.5-71.6c0-10.3-2.9-21.3-8.8-32.6
			c-4.7-9.1-11.2-18.4-19.4-27.7C71.5,21,57.4,10.6,57.3,10.4l1.1-1.5C58.6,9,72.8,19.6,86.9,35.6c8.3,9.4,14.9,18.9,19.6,28.1
			c6,11.6,9,22.8,9,33.4c0,11.7-3.1,24.6-9.4,38.4c-4.9,11-11.8,22.5-20.5,34.3C71,190,56.1,204,55.9,204.2z"/>
	</g>
	<g clip-path="url(#SVGID_2_)">
		<path fill="#BCBEC0" d="M61.2,204.2l-1.3-1.4c0.1-0.1,15-14.1,29.6-34c13.4-18.3,29.5-45.6,29.5-71.6c0-10.3-2.9-21.3-8.8-32.6
			c-4.7-9.1-11.2-18.4-19.4-27.7C76.8,21,62.7,10.6,62.5,10.4l1.1-1.5C63.8,9,78.1,19.6,92.2,35.6c8.3,9.4,14.9,18.9,19.6,28.1
			c6,11.6,9,22.8,9,33.4c0,11.7-3.1,24.6-9.4,38.4c-4.9,11-11.8,22.5-20.5,34.3C76.2,190,61.3,204,61.2,204.2z"/>
	</g>
	<g clip-path="url(#SVGID_2_)">
		<path fill="#BCBEC0" d="M66.6,204.2l-1.3-1.4c0.1-0.1,15-14.1,29.6-34c13.4-18.3,29.5-45.6,29.5-71.6c0-10.3-2.9-21.3-8.8-32.6
			c-4.7-9.1-11.2-18.4-19.4-27.7C82.2,21,68,10.6,67.9,10.4L69,8.9C69.2,9,83.5,19.6,97.6,35.6c8.3,9.4,14.9,18.9,19.6,28.1
			c6,11.6,9,22.8,9,33.4c0,11.7-3.1,24.6-9.4,38.4c-4.9,11-11.8,22.5-20.5,34.3C81.6,190,66.7,204,66.6,204.2z"/>
	</g>
	<g clip-path="url(#SVGID_2_)">
		<path fill="#BCBEC0" d="M72.3,204.2l-1.3-1.4c0.1-0.1,15-14.1,29.6-34C114,150.4,130,123.1,130,97.2c0-10.3-2.9-21.3-8.8-32.6
			c-4.7-9.1-11.2-18.4-19.4-27.7C87.9,21,73.8,10.6,73.6,10.4l1.1-1.5c0.1,0.1,14.4,10.7,28.5,26.7c8.3,9.4,14.9,18.9,19.6,28.1
			c6,11.6,9,22.8,9,33.4c0,11.7-3.1,24.6-9.4,38.4c-4.9,11-11.8,22.5-20.5,34.3C87.4,190,72.5,204,72.3,204.2z"/>
	</g>
	<g clip-path="url(#SVGID_2_)">
		<path fill="#BCBEC0" d="M77.6,204.2l-1.3-1.4c0.1-0.1,15-14.1,29.6-34c13.4-18.3,29.5-45.6,29.5-71.6c0-10.3-2.9-21.3-8.8-32.6
			c-4.7-9.1-11.2-18.4-19.4-27.7C93.2,21,79,10.6,78.9,10.4L80,8.9c0.1,0.1,14.4,10.7,28.5,26.7c8.3,9.4,14.9,18.9,19.6,28.1
			c6,11.6,9,22.8,9,33.4c0,11.7-3.1,24.6-9.4,38.4c-4.9,11-11.8,22.5-20.5,34.3C92.6,190,77.7,204,77.6,204.2z"/>
	</g>
	<g clip-path="url(#SVGID_2_)">
		<path fill="#BCBEC0" d="M83.1,204.2l-1.3-1.4c0.1-0.1,15-14.1,29.6-34c13.4-18.3,29.5-45.6,29.5-71.6c0-10.3-2.9-21.3-8.8-32.6
			c-4.7-9.1-11.2-18.4-19.4-27.7C98.7,21,84.5,10.6,84.4,10.4l1.1-1.5C85.7,9,100,19.6,114.1,35.6c8.3,9.4,14.9,18.9,19.6,28.1
			c6,11.6,9,22.8,9,33.4c0,11.7-3.1,24.6-9.4,38.4c-4.9,11-11.8,22.5-20.5,34.3C98.1,190,83.2,204,83.1,204.2z"/>
	</g>
	<g clip-path="url(#SVGID_2_)">
		<path fill="#BCBEC0" d="M88.6,204.2l-1.3-1.4c0.1-0.1,15-14.1,29.6-34c13.4-18.3,29.5-45.6,29.5-71.6c0-10.3-2.9-21.3-8.8-32.6
			c-4.7-9.1-11.2-18.4-19.4-27.7c-14-15.9-28.1-26.3-28.2-26.4l1.1-1.5c0.1,0.1,14.4,10.7,28.5,26.7c8.3,9.4,14.9,18.9,19.6,28.1
			c6,11.6,9,22.8,9,33.4c0,11.7-3.1,24.6-9.4,38.4c-4.9,11-11.8,22.5-20.5,34.3C103.7,190,88.8,204,88.6,204.2z"/>
	</g>
	<g clip-path="url(#SVGID_2_)">
		<path fill="#BCBEC0" d="M93.8,204.2l-1.3-1.4c0.1-0.1,15-14.1,29.6-34c13.4-18.3,29.5-45.6,29.5-71.6c0-10.3-2.9-21.3-8.8-32.6
			c-4.7-9.1-11.2-18.4-19.4-27.7c-14-15.9-28.1-26.3-28.2-26.4l1.1-1.5c0.1,0.1,14.4,10.7,28.5,26.7c8.3,9.4,14.9,18.9,19.6,28.1
			c6,11.6,9,22.8,9,33.4c0,11.7-3.1,24.6-9.4,38.4c-4.9,11-11.8,22.5-20.5,34.3C108.8,190,93.9,204,93.8,204.2z"/>
	</g>
	<g clip-path="url(#SVGID_2_)">
		<path fill="#BCBEC0" d="M98.9,204.2l-1.3-1.4c0.1-0.1,15-14.1,29.6-34c13.4-18.3,29.5-45.6,29.5-71.6c0-10.3-2.9-21.3-8.8-32.6
			c-4.7-9.1-11.2-18.4-19.4-27.7c-14-15.9-28.1-26.3-28.2-26.4l1.1-1.5c0.1,0.1,14.4,10.7,28.5,26.7c8.3,9.4,14.9,18.9,19.6,28.1
			c6,11.6,9,22.8,9,33.4c0,11.7-3.1,24.6-9.4,38.4c-4.9,11-11.8,22.5-20.5,34.3C114,190,99.1,204,98.9,204.2z"/>
	</g>
	<g clip-path="url(#SVGID_2_)">
		<path fill="#BCBEC0" d="M104.7,204.2l-1.3-1.4c0.1-0.1,15-14.1,29.6-34c13.4-18.3,29.5-45.6,29.5-71.6c0-10.3-2.9-21.3-8.8-32.6
			c-4.7-9.1-11.2-18.4-19.4-27.7c-14-15.9-28.1-26.3-28.2-26.4l1.1-1.5c0.1,0.1,14.4,10.7,28.5,26.7c8.3,9.4,14.9,18.9,19.6,28.1
			c6,11.6,9,22.8,9,33.4c0,11.7-3.1,24.6-9.4,38.4c-4.9,11-11.8,22.5-20.5,34.3C119.8,190,104.9,204,104.7,204.2z"/>
	</g>
	<g clip-path="url(#SVGID_2_)">
		<path fill="#BCBEC0" d="M110.3,204.2l-1.3-1.4c0.1-0.1,15-14.1,29.6-34C152,150.4,168,123.1,168,97.2c0-10.3-2.9-21.3-8.8-32.6
			c-4.7-9.1-11.2-18.4-19.4-27.7c-14-15.9-28.1-26.3-28.2-26.4l1.1-1.5c0.1,0.1,14.4,10.7,28.5,26.7c8.3,9.4,14.9,18.9,19.6,28.1
			c6,11.6,9,22.8,9,33.4c0,11.7-3.1,24.6-9.4,38.4c-4.9,11-11.8,22.5-20.5,34.3C125.4,190,110.4,204,110.3,204.2z"/>
	</g>
	<g clip-path="url(#SVGID_2_)">
		<path fill="#BCBEC0" d="M115.6,204.2l-1.3-1.4c0.1-0.1,15-14.1,29.6-34c13.4-18.3,29.5-45.6,29.5-71.6c0-10.3-2.9-21.3-8.8-32.6
			c-4.7-9.1-11.2-18.4-19.4-27.7c-14-15.9-28.1-26.3-28.2-26.4l1.1-1.5c0.1,0.1,14.4,10.7,28.5,26.7c8.3,9.4,14.9,18.9,19.6,28.1
			c6,11.6,9,22.8,9,33.4c0,11.7-3.1,24.6-9.4,38.4c-4.9,11-11.8,22.5-20.5,34.3C130.7,190,115.8,204,115.6,204.2z"/>
	</g>
	<g clip-path="url(#SVGID_2_)">
		<path fill="#BCBEC0" d="M121.6,204.2l-1.3-1.4c0.1-0.1,15-14.1,29.6-34c13.4-18.3,29.5-45.6,29.5-71.6c0-10.3-2.9-21.3-8.8-32.6
			c-4.7-9.1-11.2-18.4-19.4-27.7c-14-15.9-28.1-26.3-28.2-26.4l1.1-1.5c0.1,0.1,14.4,10.7,28.5,26.7c8.3,9.4,14.9,18.9,19.6,28.1
			c6,11.6,9,22.8,9,33.4c0,11.7-3.1,24.6-9.4,38.4c-4.9,11-11.8,22.5-20.5,34.3C136.7,190,121.8,204,121.6,204.2z"/>
	</g>
	<g clip-path="url(#SVGID_2_)">
		<path fill="#BCBEC0" d="M126.8,204.2l-1.3-1.4c0.1-0.1,15-14.1,29.6-34c13.4-18.3,29.5-45.6,29.5-71.6c0-10.3-2.9-21.3-8.8-32.6
			c-4.7-9.1-11.2-18.4-19.4-27.7c-14-15.9-28.1-26.3-28.2-26.4l1.1-1.5c0.1,0.1,14.4,10.7,28.5,26.7c8.3,9.4,14.9,18.9,19.6,28.1
			c6,11.6,9,22.8,9,33.4c0,11.7-3.1,24.6-9.4,38.4c-4.9,11-11.8,22.5-20.5,34.3C141.9,190,127,204,126.8,204.2z"/>
	</g>
	<g clip-path="url(#SVGID_2_)">
		<path fill="#BCBEC0" d="M129.9,201.9l-1.3-1.4c0.1-0.1,15-14.1,29.6-34c13.4-18.3,29.5-45.6,29.5-71.6c0-10.3-2.9-21.3-8.8-32.6
			c-4.7-9.1-11.2-18.4-19.4-27.7c-14-15.9-28.1-26.3-28.2-26.4l1.1-1.5c0.1,0.1,14.4,10.7,28.5,26.7c8.3,9.4,14.9,18.9,19.6,28.1
			c6,11.6,9,22.8,9,33.4c0,11.7-3.1,24.6-9.4,38.4c-4.9,11-11.8,22.5-20.5,34.3C145,187.7,130.1,201.7,129.9,201.9z"/>
	</g>
	<g clip-path="url(#SVGID_2_)">
		
			<rect x="147.8" y="-3.9" transform="matrix(0.8883 0.4594 -0.4594 0.8883 63.7429 -56.885)" fill="#414042" width="1.9" height="212.9"/>
	</g>
	<g clip-path="url(#SVGID_2_)">
		
			<rect x="149.7" y="7.5" transform="matrix(0.888 0.4597 -0.4597 0.888 67.2949 -56.9803)" fill="#414042" width="1.9" height="204.3"/>
	</g>
	<g clip-path="url(#SVGID_2_)">
		
			<rect x="153.7" y="10.6" transform="matrix(0.888 0.4597 -0.4597 0.888 69.1508 -58.4601)" fill="#414042" width="1.9" height="204.3"/>
	</g>
	<g clip-path="url(#SVGID_2_)">
		
			<rect x="153.7" y="21" transform="matrix(0.888 0.4597 -0.4597 0.888 73.9291 -57.2966)" fill="#414042" width="1.9" height="204.3"/>
	</g>
	<g clip-path="url(#SVGID_2_)">
		
			<rect x="154.9" y="29.2" transform="matrix(0.888 0.4597 -0.4597 0.888 77.8165 -56.9384)" fill="#414042" width="1.9" height="204.3"/>
	</g>
	<g clip-path="url(#SVGID_2_)">
		
			<rect x="156.5" y="36.6" transform="matrix(0.888 0.4597 -0.4597 0.888 81.4187 -56.8714)" fill="#414042" width="1.9" height="204.3"/>
	</g>
	<g clip-path="url(#SVGID_2_)">
		
			<rect x="156.5" y="47.1" transform="matrix(0.888 0.4597 -0.4597 0.888 86.2582 -55.693)" fill="#414042" width="1.9" height="204.3"/>
	</g>
	<g clip-path="url(#SVGID_2_)">
		
			<rect x="166.5" y="38.2" transform="matrix(0.888 0.4597 -0.4597 0.888 83.2878 -61.2827)" fill="#414042" width="1.9" height="204.3"/>
	</g>
	<g clip-path="url(#SVGID_2_)">
		
			<rect x="168.8" y="44.2" transform="matrix(0.888 0.4597 -0.4597 0.888 86.2837 -61.6463)" fill="#414042" width="1.9" height="204.3"/>
	</g>
	<g clip-path="url(#SVGID_2_)">
		
			<rect x="172.7" y="47.3" transform="matrix(0.888 0.4597 -0.4597 0.888 88.1396 -63.1262)" fill="#414042" width="1.9" height="204.3"/>
	</g>
	<g clip-path="url(#SVGID_2_)">
		
			<rect x="172.7" y="57.7" transform="matrix(0.888 0.4597 -0.4597 0.888 92.9179 -61.9627)" fill="#414042" width="1.9" height="204.3"/>
	</g>
	<g clip-path="url(#SVGID_2_)">
		
			<rect x="173.9" y="65.8" transform="matrix(0.888 0.4597 -0.4597 0.888 96.8053 -61.6045)" fill="#414042" width="1.9" height="204.3"/>
	</g>
	<g clip-path="url(#SVGID_2_)">
		
			<rect x="175.6" y="73.2" transform="matrix(0.888 0.4597 -0.4597 0.888 100.4074 -61.5375)" fill="#414042" width="1.9" height="204.3"/>
	</g>
	<g clip-path="url(#SVGID_2_)">
		
			<rect x="175.6" y="83.8" transform="matrix(0.888 0.4597 -0.4597 0.888 105.247 -60.359)" fill="#414042" width="1.9" height="204.3"/>
	</g>
</g>
</svg>
